<svg width="100" height="100" viewBox="0 0 100 100" fill="none" xmlns="http://www.w3.org/2000/svg">
  <!-- Cuerpo del gato -->
  <ellipse cx="50" cy="65" rx="28" ry="20" fill="#8B5CF6"/>
  
  <!-- Cabeza -->
  <circle cx="50" cy="40" r="22" fill="#8B5CF6"/>
  
  <!-- Orejas -->
  <path d="M35 25 L40 35 L28 35 Z" fill="#8B5CF6"/>
  <path d="M65 25 L72 35 L60 35 Z" fill="#8B5CF6"/>
  
  <!-- Orejas internas -->
  <path d="M37 28 L39 32 L33 32 Z" fill="#A855F7"/>
  <path d="M67 28 L69 32 L63 32 Z" fill="#A855F7"/>
  
  <!-- Ojos -->
  <circle cx="42" cy="38" r="4" fill="white"/>
  <circle cx="58" cy="38" r="4" fill="white"/>
  <circle cx="42" cy="38" r="2" fill="#1F2937"/>
  <circle cx="58" cy="38" r="2" fill="#1F2937"/>
  
  <!-- Nariz -->
  <path d="M50 42 L47 45 L53 45 Z" fill="#EC4899"/>
  
  <!-- Boca -->
  <path d="M50 45 Q45 48 40 46" stroke="#1F2937" stroke-width="1.5" fill="none" stroke-linecap="round"/>
  <path d="M50 45 Q55 48 60 46" stroke="#1F2937" stroke-width="1.5" fill="none" stroke-linecap="round"/>
  
  <!-- Bigotes -->
  <line x1="25" y1="40" x2="35" y2="42" stroke="#1F2937" stroke-width="1.5" stroke-linecap="round"/>
  <line x1="25" y1="45" x2="35" y2="45" stroke="#1F2937" stroke-width="1.5" stroke-linecap="round"/>
  <line x1="65" y1="42" x2="75" y2="40" stroke="#1F2937" stroke-width="1.5" stroke-linecap="round"/>
  <line x1="65" y1="45" x2="75" y2="45" stroke="#1F2937" stroke-width="1.5" stroke-linecap="round"/>
  
  <!-- Cola -->
  <path d="M22 60 Q15 45 25 35" stroke="#8B5CF6" stroke-width="8" fill="none" stroke-linecap="round"/>
  
  <!-- Patitas -->
  <ellipse cx="40" cy="82" rx="6" ry="8" fill="#8B5CF6"/>
  <ellipse cx="60" cy="82" rx="6" ry="8" fill="#8B5CF6"/>
  
  <!-- Manchas -->
  <circle cx="35" cy="55" r="3" fill="#A855F7"/>
  <circle cx="62" cy="60" r="2.5" fill="#A855F7"/>
</svg>